<svg xmlns="http://www.w3.org/2000/svg" width="60" height="60" viewBox="0 0 60 60"><g fill="none" fill-rule="evenodd"><path fill="#999" d="M30.259.286c16.429 0 29.749 13.319 29.749 29.75 0 16.429-13.32 29.747-29.75 29.747S.509 46.465.509 30.035 13.828.286 30.258.286"/><path fill="#666" d="M39.513 10.733l18.584 29.805C53.984 51.437 43.652 59.285 31.43 59.759l-1.121-26.516 9.205-22.51z"/><path fill="#E5B179" d="M14.038 54.957c.097-6.516-1.123-13.076 12.695-14.238-.002-.56-.004-4.713-.008-5.273h7.065c-.001.56-.003 4.713-.007 5.273 13.83 1.162 12.594 7.734 12.695 14.259-.456.295-.921.583-1.396.856l-14.741-.087h-.164l-14.714.087a30.29 30.29 0 0 1-1.425-.877"/><path fill="#E5B179" d="M20.255 22.943c-1.198-.13-1.026 7.019 1.04 7.064 1.663 3.652 4.644 6.754 8.95 6.754 4.305 0 7.329-3.102 8.992-6.754 1.861-.001 2.221-7.189.994-7.064.431-7.7.155-12.51-9.926-12.51-10.082 0-10.543 4.529-10.05 12.51"/><path fill="#369" d="M14.038 54.957c.097-6.516-1.123-13.076 12.695-14.238 2.238 1.222 4.592 1.215 7.05 0 13.83 1.162 12.594 7.734 12.695 14.259a29.645 29.645 0 0 1-16.19 4.805h-.045l-.724-.009h-.029l-.044-.003-.57-.022-.265-.012-.276-.015-.08-.007-.472-.034-.274-.026a29.574 29.574 0 0 1-13.471-4.698"/><path fill="#DD5219" d="M37.69 22.411c-.015.176-.02.35-.02.535l-.003 2.833.828-.02c.008-1.213.15-2.13.787-2.555.23.138.5.219.787.219a1.538 1.538 0 1 0 .764-2.87 1.535 1.535 0 1 0 .178-2.818 1.537 1.537 0 0 0-.185-2.82 1.533 1.533 0 0 0-1.015-2.568 1.54 1.54 0 0 0-2.068-2.013 1.535 1.535 0 0 0-1.534-1.479c-.294 0-.564.081-.799.221a1.539 1.539 0 0 0-2.573-.514 1.537 1.537 0 0 0-2.588-.22 1.537 1.537 0 0 0-2.6.248 1.537 1.537 0 0 0-2.6.486 1.534 1.534 0 0 0-2.332 1.257 1.538 1.538 0 0 0-2.068 2.013 1.535 1.535 0 0 0-1.078 2.497l-.021.103a1.54 1.54 0 0 0-.235 2.716l.006.146a1.538 1.538 0 0 0 .241 2.721l.01.058c-.433.272-.718.75-.718 1.299a1.539 1.539 0 0 0 2.327 1.318c.638.424.778 1.339.789 2.555l.825.02-.002-2.833c0-.186-.006-.36-.02-.536a1.535 1.535 0 0 0 .1-2.195 1.536 1.536 0 0 0 .544-2.081c.068.01.136.016.204.016.704 0 1.298-.479 1.48-1.123a1.538 1.538 0 0 0 2.519-.372 1.535 1.535 0 0 0 2.609.23c.28.38.728.622 1.234.622.604 0 1.126-.347 1.376-.852a1.54 1.54 0 0 0 2.52.372 1.536 1.536 0 0 0 1.684 1.107 1.534 1.534 0 0 0 .544 2.081 1.527 1.527 0 0 0-.414 1.05c0 .454.201.863.517 1.146M30.267 32.96c1.654 0 2.99.26 2.99.581 0 .323-1.336.583-2.99.583-1.65 0-2.988-.26-2.988-.583 0-.321 1.338-.581 2.988-.581m1.979-1.638c-1.045-.336-3.103-.313-4.065 0-4.078 1.34-1.64-1.324-6.87-1.324l-.014.008c4.309 10.74 14.044 10.847 17.942 0-5.284-.016-2.749 2.688-6.993 1.316"/><path fill="#FFF" d="M43.567 56.647a29.875 29.875 0 0 1-3.596 1.516H20.572a29.567 29.567 0 0 1-3.593-1.516h26.588zm-26.715-12.79c.657-.567 1.465-1.075 2.464-1.515H41.2c.997.44 1.807.948 2.463 1.515H16.852zM14.58 47.43a8.04 8.04 0 0 1 .615-1.513H45.32c.259.485.459.99.615 1.513H14.58zm-.507 3.578c.02-.514.052-1.018.108-1.514h32.154c.054.496.089 1.003.109 1.514h-32.37zm-.032 3.576c.006-.506.003-1.011.003-1.515h32.428c0 .504-.003 1.01.003 1.515H14.04z"/></g></svg>