<svg xmlns="http://www.w3.org/2000/svg" width="63" height="62" viewBox="0 0 63 62"><g fill="none" fill-rule="evenodd"><path fill="#1E829B" d="M31.473.008c16.921 0 30.637 13.717 30.637 30.637 0 16.919-13.716 30.639-30.637 30.639C14.55 61.284.834 47.564.834 30.645.834 13.725 14.551.008 31.473.008"/><path fill="#0E6075" d="M40.735 13.535L59.46 43.123c-4.206 9.423-13.032 16.33-23.598 17.845l-4.619-25.121 9.49-22.312z"/><path fill="#963" d="M14.74 56.312c.1-6.711-1.156-13.467 13.072-14.664-.003-.579-.005-4.855-.008-5.43h7.279c-.003.575-.006 4.851-.008 5.43 14.254 1.2 12.968 7.978 13.073 14.704-.461.298-.932.588-1.41.864l-15.21-.09h-.17l-15.153.09a30.28 30.28 0 0 1-1.465-.904"/><path fill="#E8A988" d="M35.189 36.475h-7.492c.85 2.899 6.64 2.899 7.492 0"/><path fill="#963" d="M21.142 23.34c-1.236-.136-1.057 7.23 1.071 7.276 1.71 3.76 4.781 6.959 9.216 6.959 4.433 0 7.548-3.199 9.263-6.959 1.917 0 2.286-7.404 1.025-7.276.44-7.926.156-12.882-10.225-12.882-10.383 0-10.858 4.664-10.35 12.882"/><path fill="#000" d="M41.71 23.34c.963-8.864-.34-13.224-10.278-13.224-10.01-.015-11.687 4.241-10.293 13.224 3.212-.14 1.849 6.915 1.073 7.276 4.44 11.06 14.463 11.17 18.479 0-.954-1.599-2.207-7.416 1.018-7.276m-2.809.005c-.003 3.41-.512 11.795-5.412 10.296-.99-.306-3.195-.328-4.188 0-4.736 1.554-5.348-7.121-5.348-10.296-.172-3.469 1.356-2.45 2.077-5.82C31.476 20.013 38.9 16.3 38.9 23.345"/><path fill="#F1522E" d="M14.74 56.312c.1-6.711-1.156-13.467 13.072-14.664l3.63 13.234 3.633-13.234c14.254 1.2 12.968 7.978 13.073 14.704a30.499 30.499 0 0 1-16.675 4.932 30.488 30.488 0 0 1-16.733-4.972"/><path fill="#E7EDA6" d="M24.983 43.655a1.087 1.087 0 1 0 .001 2.175 1.087 1.087 0 0 0 0-2.175m-6.701 4.33a1.09 1.09 0 1 0 0 2.178c.6 0 1.086-.487 1.086-1.091 0-.6-.486-1.087-1.086-1.087m8.567 2.516a1.088 1.088 0 1 0 1.087 1.087c0-.6-.485-1.087-1.087-1.087m-6.863 4.565a1.089 1.089 0 1 0 1.088 1.085c0-.598-.486-1.085-1.088-1.085m17.881-11.411a1.088 1.088 0 1 1-.004 2.176 1.088 1.088 0 0 1 .004-2.176m6.702 4.33a1.088 1.088 0 1 1-1.088 1.087c0-.6.486-1.087 1.087-1.087M36 50.501a1.088 1.088 0 1 1-1.087 1.087c0-.6.485-1.087 1.087-1.087m6.863 4.565a1.088 1.088 0 1 1 0 2.176 1.088 1.088 0 0 1 0-2.176m-15.465 2.342a1.087 1.087 0 1 0 1.088 1.088c0-.602-.485-1.088-1.088-1.088m8.087 0a1.087 1.087 0 1 0 1.088 1.088c0-.602-.485-1.088-1.088-1.088"/></g></svg>