<svg xmlns="http://www.w3.org/2000/svg" width="62" height="62" viewBox="0 0 62 62"><g fill="none" fill-rule="evenodd"><path fill="#AA7E63" d="M31.328.358c16.92 0 30.638 13.717 30.638 30.637 0 16.921-13.718 30.637-30.638 30.637S.689 47.916.689 30.995C.689 14.075 14.408.358 31.328.358"/><path fill="#785337" d="M40.726 13.595l18.68 29.676c-4.319 9.863-13.682 17.016-24.824 18.19l-3.346-25.553 9.49-22.313z"/><path fill="#F6CDB1" d="M14.625 56.662C14.724 49.95 13.468 43.195 27.697 42c-.003-.58-.005-4.857-.007-5.432h7.278c-.003.575-.006 4.852-.008 5.432 14.241 1.195 12.969 7.964 13.073 14.68-.47.308-.95.606-1.44.886l-15.179-.09h-.172l-15.149.09c-.499-.287-.99-.59-1.468-.904"/><path fill="#E8A988" d="M35.074 36.826h-7.492c.852 2.898 6.643 2.898 7.492 0"/><path fill="#F6CDB1" d="M21.027 23.691c-1.234-.133-1.056 7.23 1.072 7.275 1.712 3.763 4.782 6.959 9.216 6.959 4.434 0 7.548-3.196 9.262-6.959 1.917 0 2.286-7.404 1.024-7.275.441-7.925.158-12.884-10.224-12.884-10.384 0-10.859 4.667-10.35 12.884"/><path fill="#8AD497" d="M14.625 56.662C14.724 49.95 13.468 43.195 27.697 42c2.307 1.256 4.73 1.25 7.263 0 14.241 1.195 12.969 7.964 13.073 14.68a30.48 30.48 0 0 1-16.675 4.954h-.045l-.744-.011h-.077l-.583-.024-.276-.013-.284-.016-.076-.004-.495-.04-.281-.024a30.442 30.442 0 0 1-13.872-4.84"/><path fill="#630" d="M39.612 26.594c.015-1.812.305-2.973 1.981-2.903C45.656 8.55 30.22 7.394 24.837 11.818c-4.92.519-5.308 6.27-3.81 11.873 1.674-.07 1.965 1.091 1.981 2.903.5-3.524.285-7.057 1.753-8.957 1.498.618 3.063 1.53 4.662 1.77 3.205.49 4.932-.013 6.044.684 2.725 1.711 3.696 2.911 4.145 6.503m-8.356 6.616c1.054 0 1.91.265 1.91.592 0 .328-.856.596-1.91.596-1.054 0-1.908-.268-1.908-.596 0-.327.854-.592 1.908-.592m-9.064-1.963c1.738 3.639 4.762 6.677 9.087 6.677 4.317 0 7.384-3.03 9.123-6.664-1.272 1.475-2.871 2.7-4.783 3.455-1.01-2.224-2.59-3.655-4.363-3.655-1.768 0-3.342 1.422-4.353 3.632-1.885-.757-3.453-1.981-4.71-3.445"/><path fill="#8AD497" d="M26.857 39.557H35.8v3.577h-8.943z"/></g></svg>