<svg xmlns="http://www.w3.org/2000/svg" width="61" height="61" viewBox="0 0 61 61"><g fill="none" fill-rule="evenodd"><path fill="#F67872" d="M30.4.626c16.429 0 29.748 13.317 29.748 29.748 0 16.43-13.319 29.748-29.748 29.748C13.97 60.122.652 46.805.652 30.374.652 13.944 13.97.626 30.4.626"/><path fill="#D04643" d="M39.793 14.467l17.76 28.067c-4.151 9.267-12.908 16.019-23.359 17.348l-4.141-22.51 9.74-22.905z"/><path fill="#FC9" d="M14.178 55.296c.099-6.516-1.12-13.076 12.693-14.239 0-.561-.002-4.713-.005-5.272h7.064l-.004 5.272c13.84 1.165 12.59 7.75 12.692 14.277-.448.29-.907.571-1.37.839l-14.767-.085h-.164l-14.712.085a30.765 30.765 0 0 1-1.427-.877"/><path fill="#DDA572" d="M34.035 36.035h-7.273c.825 2.815 6.45 2.815 7.273 0"/><path fill="#FC9" d="M20.397 23.283c-1.2-.13-1.026 7.019 1.039 7.064 1.664 3.651 4.641 6.756 8.948 6.756 4.308 0 7.33-3.105 8.995-6.756 1.862 0 2.221-7.189.994-7.064.431-7.697.155-12.51-9.926-12.51-10.083 0-10.544 4.529-10.05 12.51"/><path fill="#000" d="M14.178 55.296c.099-6.516-1.12-13.076 12.693-14.239 2.242 1.221 4.594 1.216 7.052 0 13.843 1.165 12.591 7.75 12.695 14.277a29.597 29.597 0 0 1-16.19 4.788 29.609 29.609 0 0 1-16.25-4.826M38.441 26.1c.014-1.761.298-2.89 1.927-2.817 2.597-5.612-.203-10.084-5.213-12.552-3.812-1.879-8.422 2.002-10.432-3.548-1.074-2.964-10.719 7.717-4.326 16.1 1.626-.074 1.908 1.056 1.922 2.817.486-3.42.276-6.855 1.704-8.697 1.454.601 2.976 1.486 4.522 1.718 3.115.474 4.962-2.42 6.036-1.742 2.65 1.656 3.423 5.232 3.86 8.721"/><path fill="#000" d="M23.022 23.85h6.14v.993h2.412v-.993h6.141v3.601h-6.141v-1.992h-2.412v1.992h-6.14z"/></g></svg>