<svg xmlns="http://www.w3.org/2000/svg" width="61" height="60" viewBox="0 0 61 60"><g fill="none" fill-rule="evenodd"><path fill="#969" d="M30.543.08c16.429 0 29.749 13.32 29.749 29.75s-13.32 29.75-29.75 29.75S.793 46.26.793 29.83 14.112.08 30.542.08"/><path fill="#703A70" d="M40.006 13.473L57.844 41.66C53.866 50.83 45.4 57.604 35.217 59.213L30.79 35.14l9.216-21.666z"/><path fill="#F6CDB1" d="M14.296 54.752c.095-6.516-1.123-13.076 12.692-14.24-.003-.56-.005-4.714-.007-5.274h7.066c-.002.56-.004 4.714-.006 5.274 13.84 1.165 12.591 7.748 12.694 14.278-.45.29-.906.571-1.368.838l-14.768-.086h-.167l-14.715.086a28.6 28.6 0 0 1-1.421-.876"/><path fill="#E8A988" d="M34.151 35.49h-7.275c.826 2.813 6.448 2.813 7.275 0"/><path fill="#F6CDB1" d="M20.511 22.735c-1.2-.13-1.028 7.02 1.039 7.066 1.663 3.65 4.644 6.754 8.95 6.754 4.305 0 7.329-3.104 8.993-6.754 1.862 0 2.22-7.191.994-7.066.43-7.697.155-12.51-9.926-12.51-10.082 0-10.543 4.529-10.05 12.51"/><path fill="#033" d="M14.296 54.752c.095-6.516-1.123-13.076 12.692-14.24 2.24 1.221 4.592 1.216 7.053 0 13.84 1.165 12.591 7.75 12.694 14.278a29.603 29.603 0 0 1-16.191 4.79 29.598 29.598 0 0 1-16.248-4.828"/><path fill="#630" d="M38.556 25.555c.016-1.761.297-2.892 1.925-2.819C44.425 8.031 29.436 6.911 24.207 11.207c-4.774.5-5.151 6.088-3.698 11.53 1.628-.074 1.911 1.057 1.926 2.818.485-3.42.274-6.856 1.704-8.697 1.452.6 2.972 1.485 4.524 1.718 3.112.475 4.789-.012 5.868.666 2.648 1.658 3.588 2.824 4.025 6.313"/><path fill="#000" d="M23.764 26.278h4.887v-2.35h-4.887v2.35zm-.625-2.973h6.14v3.601h-6.14v-3.601zm9.177 2.973h4.885v-2.35h-4.885v2.35zm-.628-2.973h6.141v3.601h-6.141v-3.601z"/><path fill="#000" d="M29.149 24.296h2.723v.615h-2.723z"/><path fill="#86C28F" d="M34.04 40.512c13.841 1.165 12.59 7.748 12.695 14.279a29.593 29.593 0 0 1-12.695 4.584V40.512zm-19.745 14.24c.096-6.516-1.124-13.076 12.69-14.24v18.855a29.55 29.55 0 0 1-12.69-4.615z"/></g></svg>