<svg xmlns="http://www.w3.org/2000/svg" width="62" height="62" viewBox="0 0 62 62"><g fill="none" fill-rule="evenodd"><path fill="#999" d="M31.258.483C48.07.483 61.7 14.113 61.7 30.925c0 16.812-13.63 30.44-30.442 30.44-16.812 0-30.44-13.628-30.44-30.44S14.446.483 31.258.483"/><path fill="#666" d="M42.984 15.678l16.582 26.464C55.363 52.735 45.39 60.41 33.524 61.282l-.182-22.164 9.642-23.44z"/><path fill="#F6C7A4" d="M14.437 56.3c.06-5.656.962-10.74 13.16-11.765-.002-.581-.005-4.89-.006-5.472h7.332c-.002.581-.004 4.89-.007 5.472 12.2 1.025 13.099 6.11 13.16 11.765a30.262 30.262 0 0 1-8.37 3.878l-8.365-.05h-.168l-8.364.05a30.275 30.275 0 0 1-8.372-3.878"/><path fill="#CF9972" d="M35.031 39.321h-7.548c.857 2.919 6.692 2.919 7.548 0"/><path fill="#F6C7A4" d="M20.879 26.09c-1.76-.091-1.064 7.28 1.077 7.333 1.727 3.786 4.82 7.005 9.285 7.005 4.47 0 7.608-3.219 9.332-7.005 1.934-.003 2.695-7.375 1.035-7.334.444-7.986-2.108-11.393-9.876-11.393-7.767 0-11.365 3.112-10.853 11.393"/><path fill="#FFF" d="M14.437 56.3c.06-5.656.962-10.737 13.158-11.765l3.662 12.692 3.663-12.692C47.116 45.56 48.015 50.647 48.076 56.3a30.3 30.3 0 0 1-16.819 5.066c-6.218 0-12-1.866-16.82-5.066"/><path fill="#C35262" d="M37.311 44.808c9.923 1.464 10.708 6.23 10.767 11.492a30.238 30.238 0 0 1-12.696 4.787l1.929-16.279zm-12.01-.013l1.933 16.307A30.284 30.284 0 0 1 14.438 56.3c.057-5.28.847-10.055 10.863-11.506"/><path fill="#630" d="M31.285 8.967c-13.256.133-16.717 17.028-9.912 26.117-.712-3.18-.832-6.1.213-9.18 2.083-6.137 11.43-.473 15.054-8.137.217 3.481 2.576 4.908 4.341 8.096 1.873 3.377 1.267 5.617.212 9.221 8.055-12.156 2.467-26.237-9.908-26.117"/><path fill="#630" d="M30.375 56.201c1.497-1.2 3.045-2.77 4.39-4.54-2.03 1.628-4.414 2.912-6.8 3.658 4.92-2.812 9.746-8.959 7.698-14.79.575 3.52-.79 7.844-4.01 9.498 2.749-2.399 4.526-6.654 3.267-10.404 2.01-.935 3.61-2.599 4.79-4.555 1.526 1.344 2.496 2.85 2.953 4.483 1.772 6.338-3.085 13.252-8.864 15.957 1.908-1.661 3.739-3.299 5.001-5.987-2.118 3.102-3.844 4.883-8.425 6.68"/></g></svg>