<svg xmlns="http://www.w3.org/2000/svg" width="62" height="62" viewBox="0 0 62 62"><g fill="none" fill-rule="evenodd"><path fill="#68BDC0" d="M31.254.327c16.898 0 30.596 13.7 30.596 30.598 0 16.899-13.698 30.596-30.596 30.596C14.355 61.521.656 47.824.656 30.925.656 14.027 14.355.327 31.254.327"/><path fill="#409699" d="M43.194 13.129l17.3 26.833c-3.619 11.721-14.09 20.432-26.735 21.459l-.43-23.77 9.865-24.522z"/><path fill="#000" d="M32.02 6.798c17.84.145 16.765 28.393 8.817 36.912a42.169 42.169 0 0 0 1.95-5.25c-1.413 3.611-4.256 9.463-6.893 11.767a41.005 41.005 0 0 0 1.73-3.46c-1.157 1.119-2.575 2.544-3.906 3.263.313-.372.615-.743.903-1.117-2.772 1.344-5.732 1.122-8.491-.766a31.25 31.25 0 0 0 1.327 2.299c-1.768-1.33-3.662-4.135-5.063-6.101a30.073 30.073 0 0 0 2.297 4.357c-3.784-2.852-6.033-10.719-7.253-15.873.428 3.313 1.417 6.997 3.16 10.881-8.124-8.701-9.719-37.087 11.421-36.912"/><path fill="#8F6948" d="M49.104 55.777c-.036-6.112-.801-11.658-13.939-12.765.002-.617.006-5.18.006-5.795h-7.763c0 .615.001 5.178.004 5.795-13.17 1.11-13.904 6.681-13.94 12.815a30.451 30.451 0 0 0 17.781 5.696 30.457 30.457 0 0 0 17.85-5.746"/><path fill="#593B1F" d="M27.292 37.49h7.994c-.908 3.094-7.088 3.094-7.994 0"/><path fill="#8F6948" d="M41.138 31.24c-1.828 4.014-5.103 7.425-9.835 7.425-4.732 0-8.055-3.41-9.883-7.424-2.044 0-2.852-7.81-1.093-7.766.704-.026 1.052 1.271 1.13 3.834.84-2.055 1.462-5.842 1.591-7.383.552 3.552.023 4.64-.072 5.981 1.3-1.106 2.436-4.765 2.411-9.809.816 3.067 2.479 7.299 4.401 8.812-1.616-3.347-2.573-7.341-2.873-8.839.677 1.815 3.632 9.391 6.763 10.815-2.326-3.765-3.07-6.325-3.926-8.97 1.376 2.374 8.306 10.754 11.386 13.325"/><path fill="#FFF" fill-rule="nonzero" d="M41.165 31.246c.076.448 1.31 2.784 0 2.784-1.308 0-.076-2.336 0-2.784m-19.883 0c.078.448 1.311 2.784 0 2.784-1.306 0-.076-2.336 0-2.784"/><path fill="#FFF" d="M31.816 44.496c.243 0 .446.15.522.37v-.009c0-.301.244-.546.549-.546.236 0 .44.149.516.362a.546.546 0 0 1 .536-.667c.125 0 .24.042.333.113a.566.566 0 0 1-.018-.15c0-.304.242-.546.546-.546.095 0 .184.024.264.062a.548.548 0 1 1 .892-.424.548.548 0 0 1-.81.484.542.542 0 0 1 .204.424.546.546 0 0 1-.882.439.546.546 0 0 1-.53.695.544.544 0 0 1-.518-.367.548.548 0 0 1-1.055.301v.008a.547.547 0 0 1-1.085.11.549.549 0 0 1-1.087-.075.547.547 0 0 1-1.05-.223l.001-.036a.545.545 0 0 1-.48.282.545.545 0 0 1-.548-.547c0-.063.007-.123.028-.177a.56.56 0 0 1-.37.141.545.545 0 0 1-.546-.55.54.54 0 0 1 .202-.425.548.548 0 0 1-.81-.484.549.549 0 1 1 .894.424.59.59 0 0 1 .26-.062.545.545 0 0 1 .52.724.56.56 0 0 1 .37-.14c.304 0 .548.244.548.549l-.001.036a.536.536 0 0 1 .477-.281c.296 0 .535.226.55.513a.55.55 0 0 1 1.042.11c.05-.25.27-.438.536-.438"/><path fill="#FFF" d="M49.104 55.777c-.032-5.385-.63-10.33-9.756-12.188v7.983H23.229v-7.983c-9.152 1.863-9.725 6.834-9.757 12.238a30.448 30.448 0 0 0 17.781 5.696 30.457 30.457 0 0 0 17.85-5.746"/></g></svg>