<svg xmlns="http://www.w3.org/2000/svg" width="62" height="62" viewBox="0 0 62 62"><g fill="none" fill-rule="evenodd"><path fill="#1E829B" d="M31.247.483c16.814 0 30.442 13.629 30.442 30.442 0 16.812-13.628 30.44-30.442 30.44-16.812 0-30.443-13.628-30.443-30.44C.804 14.112 14.434.483 31.247.483"/><path fill="#0E6075" d="M42.17 16.258l16.95 26.918C54.406 53.888 43.7 61.367 31.247 61.367l-.092-.001-.445-26.06 11.46-19.048z"/><path fill="#A83914" d="M31.192 11.207c-10.102-1.26-14.32 8.409-13.858 17.122.415 7.779 3.722 17.067 9.076 25.459 1.415 2.193 7.766 2.448 9.56 0 5.216-8.172 8.487-17.193 9.036-24.843.639-8.856-3.4-19.04-13.814-17.738"/><path fill="#F1C4A1" d="M15.05 56.703c.003-6.154-.404-12.093 12.672-13.194-.002-.559-.002-4.71-.005-5.268h7.057c-.002.558-.002 4.709-.005 5.268 13.07 1.1 12.67 7.04 12.675 13.194a30.704 30.704 0 0 1-3.5 1.895l-12.618-.075h-.161l-12.617.075a30.667 30.667 0 0 1-3.498-1.895"/><path fill="#D19B71" d="M34.835 38.413l-7.177.031c.825 2.812 6.352 2.78 7.177-.03"/><path fill="#F1C4A1" d="M21.253 25.751c-1.694-.088-1.026 7.012 1.039 7.059 1.661 3.647 4.639 6.747 8.94 6.747 4.3 0 7.324-3.1 8.985-6.747 1.859-.001 2.591-7.1.995-7.059.427-7.69-2.032-10.97-9.51-10.97-7.477 0-10.943 2.997-10.449 10.97"/><path fill="#FFC" d="M15.05 56.703c.003-3.942-.161-7.791 3.151-10.343l13.044 5.593 13.048-5.592c3.31 2.551 3.148 6.402 3.15 10.342a30.299 30.299 0 0 1-16.198 4.662 30.282 30.282 0 0 1-16.195-4.662"/><path fill="#F63" d="M31.252 11.205c-10.102-1.26-14.32 8.41-13.858 17.123.415 7.779 3.722 17.067 9.076 25.459-3.352-14.156-2.104-32.724 4.782-35.015 6.638 1.861 8.133 20.86 4.778 35.015 5.216-8.172 8.487-17.194 9.036-24.843.639-8.856-3.4-19.04-13.814-17.739"/></g></svg>