<svg xmlns="http://www.w3.org/2000/svg" width="62" height="62" viewBox="0 0 62 62"><g fill="none" fill-rule="evenodd"><path fill="#FFCC5C" d="M31.395.483c16.812 0 30.442 13.629 30.442 30.442 0 16.812-13.63 30.442-30.442 30.442-16.812 0-30.443-13.63-30.443-30.442C.952 14.112 14.582.483 31.395.483"/><path fill="#D7A341" d="M43.311 14.525l16.828 26.443c-3.981 11.396-14.547 19.701-27.14 20.357l-.392-22.673 10.704-24.127z"/><path fill="#5C3C49" d="M17.795 17.796c-2.682 10.364 2.418 25.78 15.918 27.05 6.218.585 12.557.423 17.778-.637-2.594-1.748-3.854-2.834-4.89-5.901 1.53.87 2.405 1.039 3.572.797-4.651-2.094-3.227-12.013-4.963-20.004-1.267-5.809-5.772-10.069-11.42-10.808-5.61-.734-13.828 1.124-15.995 9.503"/><path fill="#F6CDB1" d="M14.527 56.27c.002-6.393-.382-12.546 13.198-13.69-.003-.583-.004-4.904-.006-5.487h7.35c-.002.583-.004 4.904-.006 5.487 13.576 1.141 13.198 7.296 13.199 13.688a30.547 30.547 0 0 1-3.53 2.027l-13.253-.08h-.17l-13.254.08a30.52 30.52 0 0 1-3.528-2.026"/><path fill="#D89A7C" d="M35.178 37.355H27.61c.86 2.927 6.71 2.927 7.568 0"/><path fill="#F6CDB1" d="M20.983 24.087c-1.76.024-1.06 7.303 1.086 7.351 1.732 3.797 4.832 7.027 9.313 7.027 4.476 0 7.625-3.23 9.353-7.027 1.939-.001 2.678-7.076 1.038-7.35-1.542-.258-3.791-2.234-3.566-4.702-1.672 2.405-7.572 4.644-11.249 4.013 1.075-.554 1.665-1.162 2.599-2.482-1.235 1.26-4.144 2.381-5.808 2.416.557-.2 1.797-1.391 1.881-2.323-.519.652-3.956 3.068-4.647 3.077"/><path fill="#FFF" d="M14.527 56.27c.002-6.393-.382-12.546 13.198-13.69 2.533 1.132 4.969.995 7.338 0 13.576 1.141 13.198 7.296 13.199 13.688a30.547 30.547 0 0 1-3.53 2.027l-13.253-.08h-.17l-13.254.08a30.52 30.52 0 0 1-3.528-2.026"/><path fill="#C36" d="M14.527 56.27c.002-5.424-.273-10.672 7.935-12.84.601 3.146 4.375 5.574 8.939 5.574s8.334-2.425 8.938-5.57c8.191 2.168 7.922 7.416 7.923 12.834a30.304 30.304 0 0 1-16.841 5.099h-.027l-.188-.003-.292-.002-.124-.003-.447-.012h-.021a31.751 31.751 0 0 1-3.675-.35l-.586-.094-.058-.012a30.27 30.27 0 0 1-11.476-4.621"/></g></svg>