<svg xmlns="http://www.w3.org/2000/svg" width="61" height="62" viewBox="0 0 61 62"><g fill="none" fill-rule="evenodd"><path fill="#999" d="M30.542.483c16.812 0 30.442 13.63 30.442 30.442 0 16.812-13.63 30.44-30.442 30.44C13.73 61.365.1 47.737.1 30.925S13.731.483 30.542.483"/><path fill="#666" d="M42.269 15.678L58.85 42.142c-4.203 10.594-14.175 18.268-26.041 19.14l-.183-22.164 9.643-23.44z"/><path fill="#F6C7A4" d="M13.723 56.3c.06-5.656.96-10.74 13.159-11.765-.003-.582-.006-4.891-.007-5.472h7.332c-.001.581-.004 4.89-.007 5.472C46.4 45.56 47.3 50.644 47.36 56.3a30.244 30.244 0 0 1-8.37 3.877l-8.364-.049h-.168l-8.364.05a30.267 30.267 0 0 1-8.371-3.878"/><path fill="#CF9972" d="M34.315 39.321h-7.548c.857 2.919 6.692 2.919 7.548 0"/><path fill="#F6C7A4" d="M20.163 26.09c-1.761-.09-1.064 7.282 1.079 7.334 1.725 3.786 4.82 7.008 9.284 7.008 4.47 0 7.608-3.222 9.332-7.008 1.932-.003 2.695-7.375 1.035-7.334.444-7.986-2.107-11.393-9.876-11.393-7.767 0-11.366 3.112-10.854 11.393"/><path fill="#FFF" d="M13.723 56.3c.06-5.655.96-10.737 13.156-11.765l3.663 12.692 3.662-12.692C46.4 45.561 47.3 50.647 47.36 56.301a30.3 30.3 0 0 1-16.818 5.065c-6.219 0-12-1.865-16.819-5.065"/><path fill="#000" d="M36.595 44.809c9.922 1.464 10.708 6.229 10.766 11.492a30.239 30.239 0 0 1-12.694 4.786l1.928-16.278zm-12.009-.013l1.932 16.306a30.272 30.272 0 0 1-12.795-4.801c.056-5.279.844-10.055 10.863-11.505M30.567 8.97c-13.254.131-16.716 17.027-9.91 26.115-.712-3.18-.832-6.101.213-9.18 2.083-6.137 11.43-.473 15.053-8.137.218 3.481 2.576 4.908 4.342 8.096 1.873 3.377 1.266 5.614.212 9.221 8.054-12.156 2.468-26.237-9.91-26.115"/><path fill="#000" d="M35.14 26.345c-3.893 0-3.471 5.134 0 5.134 3.47 0 3.889-5.134 0-5.134m-9.311 0c-3.891 0-3.471 5.134 0 5.134 3.469 0 3.89-5.134 0-5.134m2.932.352a5.54 5.54 0 0 1 1.71-.256 5.56 5.56 0 0 1 1.734.262c1.584-1.918 5.32-1.311 7.253-.262v1.432c-.293.076-.519.18-.688.407.264 1.89-1.04 4.047-3.63 4.047-2.913 0-4.191-2.727-3.447-4.734a5.97 5.97 0 0 0-1.222-.122 5.74 5.74 0 0 0-1.197.12c.747 2.006-.532 4.736-3.445 4.736-2.591 0-3.894-2.156-3.628-4.047-.172-.227-.396-.33-.694-.407v-1.432c1.934-1.049 5.667-1.656 7.254.256"/></g></svg>