<svg xmlns="http://www.w3.org/2000/svg" width="62" height="62" viewBox="0 0 62 62"><g fill="none" fill-rule="evenodd"><path fill="#F67872" d="M31.4.34c16.812 0 30.442 13.628 30.442 30.44 0 16.814-13.63 30.442-30.442 30.442C14.588 61.222.957 47.594.957 30.78.957 13.968 14.587.34 31.4.34"/><path fill="#DC5450" d="M43.845 15.485L60.103 40.94c-4.146 11.716-15.258 20.134-28.359 20.278l.463-24.068 11.638-21.664z"/><path fill="#000" d="M17.853 18.42a23.201 23.201 0 0 0-.607 3.823c-1.088 7.778-.339 16.39-4.516 18.362 1.161.25 2.03.075 3.552-.833-1.028 3.192-2.284 4.325-4.864 6.145 4.085 4.867 34.976 5.076 39.963 0-2.58-1.82-3.835-2.953-4.867-6.145 1.524.908 2.393 1.083 3.552.833-4.175-1.972-3.427-10.584-4.516-18.362a23.201 23.201 0 0 0-.604-3.823c-1.359-5.5-5.11-8.297-9.09-9.43a12.982 12.982 0 0 0-2.089-.466 17.004 17.004 0 0 0-2.253-.15h-.232c-.781 0-1.536.051-2.25.15-.715.099-1.414.256-2.089.467-3.984 1.132-7.73 3.929-9.09 9.429"/><path fill="#98653B" d="M14.678 56.22c0-6.346-.354-12.45 13.134-13.584-.003-.58-.006-4.882-.008-5.46h7.314c-.002.578-.005 4.88-.005 5.46 13.425 1.128 13.136 7.186 13.133 13.503a30.09 30.09 0 0 1-3.758 2.133l-12.943-.08h-.17l-13.06.08a30.255 30.255 0 0 1-3.637-2.052"/><path fill="#630" d="M35.228 37.436h-7.53c.855 2.915 6.675 2.915 7.53 0"/><path fill="#98653B" d="M21.103 24.233c-1.752.027-1.054 7.266 1.082 7.315 1.721 3.779 4.806 6.992 9.262 6.992 4.459 0 7.591-3.213 9.31-6.992 1.928-.003 2.664-7.041 1.032-7.315-1.535-.254-3.771-2.221-3.547-4.677-1.665 2.393-7.535 4.623-11.193 3.992 1.068-.55 1.656-1.153 2.585-2.468-1.228 1.252-4.124 2.37-5.779 2.403.554-.198 1.787-1.386 1.874-2.31-.522.646-3.94 3.052-4.626 3.06"/><path fill="#FFC" d="M14.678 56.22c0-5.383-.252-10.586 7.896-12.74.599 3.13 4.352 5.546 8.896 5.546 4.539 0 8.292-2.413 8.894-5.541 8.09 2.141 7.885 7.305 7.882 12.653A30.299 30.299 0 0 1 31.4 61.222a30.294 30.294 0 0 1-16.722-5.002"/></g></svg>