<svg xmlns="http://www.w3.org/2000/svg" width="62" height="62" viewBox="0 0 62 62"><g fill="none" fill-rule="evenodd"><path fill="#FA726E" d="M31.258.339C48.07.339 61.7 13.968 61.7 30.78c0 16.812-13.63 30.442-30.442 30.442C14.446 61.223.816 47.593.816 30.78.816 13.968 14.446.34 31.258.34"/><path fill="#CB4240" d="M43.802 13.786l16.508 26.11c-3.288 10.493-12.103 18.538-23.035 20.73L33.1 37.913l10.703-24.127z"/><path fill="#F6CDB1" d="M14.96 56.496c.01-6.198-.487-12.205 12.675-13.313-.003-.56-.006-4.71-.008-5.27h7.058c-.001.56-.004 4.71-.006 5.27 13.192 1.11 12.661 7.145 12.674 13.361a30.47 30.47 0 0 1-3.138 1.73l-12.976-.078h-.164l-12.903.078a30.43 30.43 0 0 1-3.212-1.778"/><path fill="#000" d="M31.103 6.313c17.223 0 25.128 32 0 32-25.129 0-17.222-32 0-32"/><path fill="#E8A988" d="M34.792 38.163h-7.268c.825 2.812 6.443 2.812 7.268 0"/><path fill="#F6CDB1" d="M21.163 25.424c-1.694-.088-1.024 7.012 1.039 7.059 1.663 3.647 4.64 6.747 8.94 6.747 4.303 0 7.324-3.1 8.985-6.747 1.859-.001 2.594-7.1.995-7.059.427-7.69-2.03-10.97-9.507-10.97-7.48 0-10.942 2.997-10.452 10.97"/><path fill="#000" d="M14.96 56.497c.01-6.199-.487-12.204 12.672-13.314.93.52 2.168.836 3.524.836 1.359 0 2.596-.316 3.527-.836 13.188 1.111 12.657 7.147 12.67 13.362l.014.069a30.307 30.307 0 0 1-16.11 4.61 30.305 30.305 0 0 1-16.297-4.727"/><path fill="#FFF" d="M24.656 43.554a4.18 4.18 0 0 0-.564 1.174c-.552 1.875.603 3.395 2.576 3.395 1.886 0 3.839-1.388 4.488-3.148.651 1.76 2.604 3.148 4.49 3.148 1.974 0 3.128-1.52 2.576-3.395a4.176 4.176 0 0 0-.566-1.176 35.59 35.59 0 0 0-2.972-.369c-.932.52-2.168.836-3.526.836-1.358 0-2.594-.316-3.526-.836-1.082.09-2.069.216-2.976.37"/><path fill="#000" d="M41.929 25.422h-1.506l-.288-.964-.198.964H36.17l-.262-5.387-.648 5.387h-3.266l-.36-1.248-.224 1.248h-2.869l-.673-3.516-.266 3.516H24.49l-.528-2.041-.229 2.041h-1.53l-.307-1.304-.219 1.304h-1.344c-2.939-16.113 22.743-17.272 21.595 0"/></g></svg>