<svg xmlns="http://www.w3.org/2000/svg" width="62" height="62" viewBox="0 0 62 62"><g fill="none" fill-rule="evenodd"><path fill="#68BDC0" d="M31.328.339C48.14.339 61.77 13.968 61.77 30.78c0 16.812-13.63 30.442-30.442 30.442-16.812 0-30.44-13.63-30.44-30.442C.888 13.968 14.516.34 31.328.34"/><path fill="#409699" d="M43.87 16.25l15.968 25.228c-4.27 11.369-15.143 19.505-27.95 19.737l.343-23.303L43.87 16.25z"/><path fill="#630" d="M28.627 10.559c.924 0 1.821.18 2.674.513a7.316 7.316 0 0 1 2.675-.513c12.38 0 12.057 26.208 8.05 32.085l-21.238-.028c-4.039-7.24-4.507-32.057 7.839-32.057"/><path fill="#F6CDB1" d="M15.133 56.558c-.003-6.078-.25-11.892 12.675-12.978-.003-.56-.006-4.711-.008-5.27h7.057c0 .559-.003 4.71-.005 5.27 12.92 1.085 12.677 6.897 12.674 12.977a30.455 30.455 0 0 1-3.972 2.108l-12.142-.073h-.164l-12.143.073a30.361 30.361 0 0 1-3.972-2.107"/><path fill="#E8A988" d="M34.854 38.561h-7.005c.797 2.734 6.212 2.727 7.005 0"/><path fill="#F6CDB1" d="M21.718 25.82c-1.633-.086-.986 7.014 1.003 7.059 1.601 3.648 4.47 6.748 8.619 6.748 4.144 0 7.057-3.1 8.657-6.748 1.792 0 2.5-7.099.959-7.059-3.62-.644-7.152-2.152-9.626-4.594-2.857 2.285-5.776 3.781-9.612 4.594"/><path fill="#3D7051" d="M15.133 56.559c-.003-5.97-.239-11.68 11.985-12.916v-1.684h8.424v1.682c12.222 1.235 11.987 6.948 11.984 12.916a30.287 30.287 0 0 1-16.198 4.666 30.294 30.294 0 0 1-16.195-4.664"/><path fill="#CFC" d="M35.164 10.184c.528.161 1.081.355 1.643.581l.002-.013c.362-1.281 1.691-2.07 2.06-1.797.498.369-.869 1.128-1.153 2.197 4.081 1.868 8.375 5.513 7.53 11.957-.738 5.619-3.106-3.489-12.96-3.592-6.187-.064-16.17.107-11.143-6.265 3.097-3.925 10.112-4.27 14.021-3.068M27.99 58.788c-.03-.164-.24-.675-.513-1.43a13.88 13.88 0 0 1-.411-2.922 12.7 12.7 0 0 1 .932-3.541c.844-1.667 2.361-3.118 2.956-4.758-1.09 1.844-2.787 3.168-5.264 3.956-2.823.894-4.403 2.45-5.596 5.083-1.35-.32-2.519-.339-3.83.145.093-.166.307-.746.653-1.589a19.193 19.193 0 0 1 1.794-2.87 17.19 17.19 0 0 1 3.208-2.635c2.079-1.158 4.602-1.527 6.24-3.111.44-.427.826-.964 1.124-1.47h-2.41v-2.762h8.849v2.761h-1.77c.78 2.14.334 4.151-1.543 6.435-1.771 2.155-2.058 4.072-1.299 6.503-1.35.525-2.341 1.157-3.12 2.205"/></g></svg>