<svg xmlns="http://www.w3.org/2000/svg" width="61" height="62" viewBox="0 0 61 62"><g fill="none" fill-rule="evenodd"><path fill="#676373" d="M30.469.339C47.282.339 60.91 13.968 60.91 30.78c0 16.812-13.629 30.442-30.442 30.442-16.812 0-30.44-13.63-30.44-30.442C.029 13.968 13.657.34 30.469.34"/><path fill="#403D4A" d="M30.793 17.978l11.086-6.401L60.053 37.97c-2.514 10.383-10.35 18.687-20.457 21.86l-8.928-12.277.125-29.575z"/><path fill="#FBE8D7" d="M13.685 56.179c.003-5.983.344-11.528 13.136-12.604-.005-.58-.005-4.88-.008-5.46h7.315c-.003.58-.006 4.88-.006 5.46 12.784 1.076 13.131 6.621 13.134 12.602a30.303 30.303 0 0 1-16.787 5.046 30.307 30.307 0 0 1-16.784-5.044"/><path fill="#E4B396" d="M34.237 38.373h-7.53c.855 2.916 6.675 2.916 7.53 0"/><path fill="#FBE8D7" d="M20.531 25.672c-1.694-.088-1.024 7.014 1.039 7.059 1.664 3.648 4.641 6.748 8.94 6.748 4.303 0 7.327-3.1 8.985-6.748 1.859-.001 2.594-7.099.995-7.059.427-7.689-2.03-10.969-9.508-10.969-7.476 0-10.943 2.997-10.45 10.97"/><path fill="#29DDE3" d="M44.703 47.15c.222 1.617.2 3.357.2 5.114-5.89 6.945-24.894 6.336-28.866.08 0-1.787-.024-3.556.2-5.199 1.034-1.006 2.485-1.853 4.521-2.488 2.133 3.242 5.688 5.364 9.713 5.364 4.024 0 7.576-2.121 9.711-5.364 2.037.635 3.492 1.486 4.521 2.492"/><path fill="#00A9AE" d="M43.542 46.208c3.565 2.413 3.71 6.097 3.713 9.97a30.307 30.307 0 0 1-16.787 5.045c-6.202 0-11.97-1.86-16.784-5.044.003-3.872.15-7.56 3.715-9.972 1.781 5.008 6.96 8.629 13.072 8.629 6.112 0 11.29-3.62 13.07-8.628"/><path fill="#EDC030" d="M18.163 13.503c-.737 3.201-6.212 3.54-3.486 8.04 1.298 2.145-4.115 3.95.65 7.041 2.815 1.824-4.716 4.585 1.612 7.872 1.87.972 3.37 3.67 1.086 4.445 2.826 2.067 9.672-1.362 6.06-6.429-4.706-6.608 3.142-4.437.537-10.336-1.081-2.448 3.38-4.995 5.847-7.456 2.465 2.461 6.929 5.008 5.848 7.456-2.607 5.899 5.244 3.728.534 10.336-3.612 5.067 3.234 8.496 6.063 6.43-2.287-.775-.784-3.474 1.085-4.446 6.328-3.287-1.205-6.048 1.61-7.872 4.765-3.09-.646-4.896.653-7.041 2.724-4.5-2.75-4.838-3.49-8.04-.95-4.119-8.445-6.782-12.303-3.992-3.86-2.79-11.354-.127-12.306 3.992"/></g></svg>