<svg xmlns="http://www.w3.org/2000/svg" width="61" height="62" viewBox="0 0 61 62"><g fill="none" fill-rule="evenodd"><path fill="#54D1A7" d="M30.543.339c16.812 0 30.441 13.629 30.441 30.441 0 16.813-13.63 30.443-30.441 30.443C13.73 61.223.1 47.593.1 30.78.1 13.968 13.73.339 30.543.339"/><path fill="#36B389" d="M43.181 13.564l16.503 26.043C55.9 52.115 44.285 61.223 30.543 61.223c-.536 0-1.07-.015-1.599-.042l-1.916-47.568 16.153-.049z"/><path fill="#754935" d="M30.636 8.8c-4.742-2.2-14.849 1.337-14.165 11.809.503 7.71-3.216 5.608-2.368 12.563.727 5.95 3.937 4.25 2.92 9.989-1.575 8.887 28.428 9.117 26.93.23-.967-5.735 2.225-4.267 3.003-10.22.91-6.954-3.065-4.863-2.257-12.562 1.055-10.059-9.456-13.776-14.063-11.81"/><path fill="#F6CDB1" d="M14.34 56.512c.01-6.198-.486-12.206 12.675-13.314-.003-.56-.005-4.71-.008-5.269h7.057c0 .559-.002 4.71-.005 5.27 13.19 1.109 12.661 7.145 12.675 13.36v.002a30.294 30.294 0 0 1-16.191 4.661 30.296 30.296 0 0 1-16.057-4.577.57.57 0 0 0-.146-.133"/><path fill="#E8A988" d="M34.17 38.181h-7.268c.825 2.811 6.443 2.811 7.268 0"/><path fill="#F6CDB1" d="M20.513 25.44c-1.588-.474-.984 7.014 1.068 7.059 1.662 3.647 4.639 6.747 8.94 6.747 4.302 0 7.323-3.1 8.984-6.747 1.86-.001 2.555-7.408.995-7.059-2.735.61-7.525-5.028-9.959-7.818-2.389 2.72-7.69 8.517-10.028 7.818"/><path fill="#000" d="M14.34 56.512c.008-5.042-.317-9.958 6.643-12.212 1.83 2.437 5.424 4.093 9.553 4.093 4.13 0 7.721-1.656 9.555-4.093 6.981 2.261 6.632 7.201 6.642 12.26v.001a30.294 30.294 0 0 1-16.19 4.661 30.296 30.296 0 0 1-16.058-4.577.57.57 0 0 0-.145-.133"/><path fill="#FFF" d="M29.131 50.61h2.812v2.56h-2.812zm-.433-.069l-5.202-1.39v5.475l5.202-1.389zm3.677 0l5.203-1.39v5.475l-5.203-1.389z"/></g></svg>